<svg xmlns="http://www.w3.org/2000/svg" version="1.1" xmlns:xlink="http://www.w3.org/1999/xlink" xmlns:svgjs="http://svgjs.com/svgjs" width="512" height="512" x="0" y="0" viewBox="0 0 24 24" style="enable-background:new 0 0 512 512" xml:space="preserve" class=""><g><g data-name="Layer 2"><rect width="15" height="14" x="2" y="5" fill="#000000" rx="2" data-original="#f44336" opacity="1" class=""></rect><path fill="#000000" d="M21.53 7.15a1 1 0 0 0-1 0l-5 2.5a1 1 0 0 0-.55.89v3a1 1 0 0 0 .55.89l5 2.5A1 1 0 0 0 21 17a1 1 0 0 0 .53-.15A1 1 0 0 0 22 16V8a1 1 0 0 0-.47-.85z" data-original="#f44336" opacity="1" class=""></path><g fill="#fff"><path d="M11.5 13h-4a1 1 0 0 1 0-2h4a1 1 0 0 1 0 2z" fill="#ffffff" data-original="#ffffff"></path><path d="M9.5 15a1 1 0 0 1-1-1v-4a1 1 0 0 1 2 0v4a1 1 0 0 1-1 1z" fill="#ffffff" data-original="#ffffff"></path></g></g></g></svg>