<svg xmlns="http://www.w3.org/2000/svg" version="1.1" xmlns:xlink="http://www.w3.org/1999/xlink" xmlns:svgjs="http://svgjs.com/svgjs" width="512" height="512" x="0" y="0" viewBox="0 0 50 50" style="enable-background:new 0 0 512 512" xml:space="preserve" class=""><g><path d="M38 7H12a7 7 0 0 0-7 7v28a1 1 0 0 0 .62.92A.84.84 0 0 0 6 43a1 1 0 0 0 .71-.29l8.7-8.71H38a7 7 0 0 0 7-7V14a7 7 0 0 0-7-7zm5 20a5 5 0 0 1-5 5H15a1 1 0 0 0-.71.29L7 39.59V14a5 5 0 0 1 5-5h26a5 5 0 0 1 5 5z" fill="#65676b" data-original="#000000" opacity="1" class=""></path></g></svg>