<svg xmlns="http://www.w3.org/2000/svg" version="1.1" xmlns:xlink="http://www.w3.org/1999/xlink" xmlns:svgjs="http://svgjs.com/svgjs" width="512" height="512" x="0" y="0" viewBox="0 0 512 512" style="enable-background:new 0 0 512 512" xml:space="preserve" class=""><g><linearGradient id="a"><stop offset="0" stop-color="#fef0ae"></stop><stop offset="1" stop-color="#fac600"></stop></linearGradient><linearGradient xlink:href="#a" id="g" x1="55.94" x2="99.502" y1="76.415" y2="126.963" gradientTransform="matrix(0 1 1 0 0 0)" gradientUnits="userSpaceOnUse"></linearGradient><linearGradient id="b"><stop offset="0" stop-color="#fe9738" stop-opacity="0"></stop><stop offset="1" stop-color="#fe9738"></stop></linearGradient><linearGradient xlink:href="#b" id="h" x1="54.917" x2="79.871" y1="86.005" y2="86.005" gradientTransform="matrix(0 1 1 0 0 0)" gradientUnits="userSpaceOnUse"></linearGradient><linearGradient xlink:href="#a" id="i" x1="55.94" x2="99.502" y1="376.996" y2="427.544" gradientTransform="matrix(0 1 1 0 0 0)" gradientUnits="userSpaceOnUse"></linearGradient><linearGradient xlink:href="#b" id="j" x1="54.917" x2="79.871" y1="386.586" y2="386.586" gradientTransform="matrix(0 1 1 0 0 0)" gradientUnits="userSpaceOnUse"></linearGradient><linearGradient xlink:href="#a" id="k" x1="55.94" x2="99.502" y1="176.608" y2="227.156" gradientTransform="matrix(0 1 1 0 0 0)" gradientUnits="userSpaceOnUse"></linearGradient><linearGradient xlink:href="#b" id="l" x1="54.917" x2="79.871" y1="186.198" y2="186.198" gradientTransform="matrix(0 1 1 0 0 0)" gradientUnits="userSpaceOnUse"></linearGradient><linearGradient xlink:href="#a" id="m" x1="55.94" x2="99.502" y1="276.802" y2="327.35" gradientTransform="matrix(0 1 1 0 0 0)" gradientUnits="userSpaceOnUse"></linearGradient><linearGradient xlink:href="#b" id="n" x1="54.917" x2="79.871" y1="286.392" y2="286.392" gradientTransform="matrix(0 1 1 0 0 0)" gradientUnits="userSpaceOnUse"></linearGradient><linearGradient id="o" x1="162.627" x2="498.497" y1="134.665" y2="470.534" gradientTransform="matrix(0 1 1 0 0 0)" gradientUnits="userSpaceOnUse"><stop offset="0" stop-color="#b3dafe"></stop><stop offset="1" stop-color="#0182fc"></stop></linearGradient><linearGradient id="c"><stop offset="0" stop-color="#314dc9" stop-opacity="0"></stop><stop offset=".276" stop-color="#304bc4" stop-opacity=".276"></stop><stop offset=".563" stop-color="#2b45b8" stop-opacity=".563"></stop><stop offset=".854" stop-color="#243ba3" stop-opacity=".854"></stop><stop offset="1" stop-color="#1f3596"></stop></linearGradient><linearGradient xlink:href="#c" id="p" x1="403.061" x2="506.001" y1="256" y2="256" gradientTransform="matrix(0 1 1 0 0 0)" gradientUnits="userSpaceOnUse"></linearGradient><linearGradient xlink:href="#c" id="q" x1="283.962" x2="283.962" y1="433.943" y2="515.219" gradientTransform="matrix(0 1 1 0 0 0)" gradientUnits="userSpaceOnUse"></linearGradient><linearGradient xlink:href="#c" id="r" x1="365.362" x2="245.6" y1="426.118" y2="252.177" gradientUnits="userSpaceOnUse"></linearGradient><linearGradient id="d"><stop offset="0" stop-color="#f5fbff"></stop><stop offset="1" stop-color="#dbd5ef"></stop></linearGradient><linearGradient xlink:href="#d" id="s" x1="164.54" x2="471.434" y1="145.132" y2="452.026" gradientTransform="matrix(0 1 1 0 0 0)" gradientUnits="userSpaceOnUse"></linearGradient><linearGradient id="e"><stop offset="0" stop-color="#dbd5ef" stop-opacity="0"></stop><stop offset=".285" stop-color="#d9d2ee" stop-opacity=".285"></stop><stop offset=".474" stop-color="#d4c9e9" stop-opacity=".474"></stop><stop offset=".635" stop-color="#cbbae2" stop-opacity=".635"></stop><stop offset=".779" stop-color="#bfa5d7" stop-opacity=".78"></stop><stop offset=".913" stop-color="#af8aca" stop-opacity=".913"></stop><stop offset="1" stop-color="#a274bf"></stop></linearGradient><linearGradient xlink:href="#e" id="t" x1="225.987" x2="139.73" y1="127.982" y2="67.388" gradientUnits="userSpaceOnUse"></linearGradient><linearGradient xlink:href="#e" id="u" x1="304.704" x2="217.734" y1="150.915" y2="93.172" gradientUnits="userSpaceOnUse"></linearGradient><linearGradient xlink:href="#e" id="v" x1="384.232" x2="478.291" y1="256" y2="256" gradientTransform="matrix(0 1 1 0 0 0)" gradientUnits="userSpaceOnUse"></linearGradient><linearGradient xlink:href="#e" id="w" x1="275.408" x2="275.408" y1="418.592" y2="492.856" gradientTransform="matrix(0 1 1 0 0 0)" gradientUnits="userSpaceOnUse"></linearGradient><linearGradient xlink:href="#e" id="x" x1="405.146" x2="298.928" y1="169.071" y2="99.923" gradientUnits="userSpaceOnUse"></linearGradient><linearGradient xlink:href="#e" id="y" x1="483.956" x2="405.54" y1="170.386" y2="116.207" gradientUnits="userSpaceOnUse"></linearGradient><linearGradient xlink:href="#d" id="z" x1="174.97" x2="103.463" y1="131.703" y2="90.881" gradientTransform="matrix(0 1 1 0 0 0)" gradientUnits="userSpaceOnUse"></linearGradient><linearGradient xlink:href="#a" id="A" x1="63.672" x2="107.233" y1="69.751" y2="120.299" gradientTransform="matrix(0 1 1 0 0 0)" gradientUnits="userSpaceOnUse"></linearGradient><linearGradient xlink:href="#b" id="B" x1="113.615" x2="141.518" y1="116.779" y2="116.779" gradientTransform="matrix(0 1 1 0 0 0)" gradientUnits="userSpaceOnUse"></linearGradient><linearGradient xlink:href="#b" id="C" x1="106.805" x2="105.161" y1="103.19" y2="85.929" gradientTransform="matrix(0 1 1 0 0 0)" gradientUnits="userSpaceOnUse"></linearGradient><linearGradient xlink:href="#b" id="D" x1="82.601" x2="82.601" y1="127.883" y2="144.404" gradientTransform="matrix(0 1 1 0 0 0)" gradientUnits="userSpaceOnUse"></linearGradient><linearGradient xlink:href="#d" id="E" x1="174.97" x2="103.463" y1="231.897" y2="191.075" gradientTransform="matrix(0 1 1 0 0 0)" gradientUnits="userSpaceOnUse"></linearGradient><linearGradient xlink:href="#a" id="F" x1="63.672" x2="107.233" y1="169.945" y2="220.493" gradientTransform="matrix(0 1 1 0 0 0)" gradientUnits="userSpaceOnUse"></linearGradient><linearGradient xlink:href="#b" id="G" x1="113.615" x2="141.518" y1="216.973" y2="216.973" gradientTransform="matrix(0 1 1 0 0 0)" gradientUnits="userSpaceOnUse"></linearGradient><linearGradient xlink:href="#b" id="H" x1="106.805" x2="105.161" y1="203.383" y2="186.123" gradientTransform="matrix(0 1 1 0 0 0)" gradientUnits="userSpaceOnUse"></linearGradient><linearGradient xlink:href="#b" id="I" x1="82.601" x2="82.601" y1="228.077" y2="244.597" gradientTransform="matrix(0 1 1 0 0 0)" gradientUnits="userSpaceOnUse"></linearGradient><linearGradient xlink:href="#d" id="J" x1="174.97" x2="103.463" y1="332.09" y2="291.268" gradientTransform="matrix(0 1 1 0 0 0)" gradientUnits="userSpaceOnUse"></linearGradient><linearGradient xlink:href="#a" id="K" x1="63.672" x2="107.233" y1="270.139" y2="320.687" gradientTransform="matrix(0 1 1 0 0 0)" gradientUnits="userSpaceOnUse"></linearGradient><linearGradient xlink:href="#b" id="L" x1="113.615" x2="141.518" y1="317.166" y2="317.166" gradientTransform="matrix(0 1 1 0 0 0)" gradientUnits="userSpaceOnUse"></linearGradient><linearGradient xlink:href="#b" id="M" x1="106.805" x2="105.161" y1="303.577" y2="286.317" gradientTransform="matrix(0 1 1 0 0 0)" gradientUnits="userSpaceOnUse"></linearGradient><linearGradient xlink:href="#b" id="N" x1="82.601" x2="82.601" y1="328.271" y2="344.791" gradientTransform="matrix(0 1 1 0 0 0)" gradientUnits="userSpaceOnUse"></linearGradient><linearGradient xlink:href="#d" id="O" x1="174.97" x2="103.463" y1="432.284" y2="391.462" gradientTransform="matrix(0 1 1 0 0 0)" gradientUnits="userSpaceOnUse"></linearGradient><linearGradient xlink:href="#a" id="P" x1="63.672" x2="107.233" y1="370.332" y2="420.88" gradientTransform="matrix(0 1 1 0 0 0)" gradientUnits="userSpaceOnUse"></linearGradient><linearGradient xlink:href="#b" id="Q" x1="113.615" x2="141.518" y1="417.36" y2="417.36" gradientTransform="matrix(0 1 1 0 0 0)" gradientUnits="userSpaceOnUse"></linearGradient><linearGradient xlink:href="#b" id="R" x1="106.805" x2="105.161" y1="403.771" y2="386.51" gradientTransform="matrix(0 1 1 0 0 0)" gradientUnits="userSpaceOnUse"></linearGradient><linearGradient xlink:href="#b" id="S" x1="82.601" x2="82.601" y1="428.464" y2="444.985" gradientTransform="matrix(0 1 1 0 0 0)" gradientUnits="userSpaceOnUse"></linearGradient><linearGradient xlink:href="#e" id="T" x1="34.46" x2="110.504" y1="123.207" y2="257.51" gradientUnits="userSpaceOnUse"></linearGradient><linearGradient xlink:href="#e" id="U" x1="95.939" x2="140.572" y1="226.643" y2="226.643" gradientUnits="userSpaceOnUse"></linearGradient><linearGradient xlink:href="#e" id="V" x1="93.026" x2="93.026" y1="226.509" y2="256.565" gradientUnits="userSpaceOnUse"></linearGradient><linearGradient xlink:href="#e" id="W" x1="143.109" x2="219.153" y1="123.207" y2="257.51" gradientUnits="userSpaceOnUse"></linearGradient><linearGradient xlink:href="#e" id="X" x1="204.588" x2="249.221" y1="226.643" y2="226.643" gradientUnits="userSpaceOnUse"></linearGradient><linearGradient xlink:href="#e" id="Y" x1="201.676" x2="201.676" y1="226.509" y2="256.565" gradientUnits="userSpaceOnUse"></linearGradient><linearGradient xlink:href="#e" id="Z" x1="251.758" x2="327.802" y1="123.207" y2="257.51" gradientUnits="userSpaceOnUse"></linearGradient><linearGradient xlink:href="#e" id="aa" x1="313.237" x2="357.87" y1="226.643" y2="226.643" gradientUnits="userSpaceOnUse"></linearGradient><linearGradient xlink:href="#e" id="ab" x1="310.325" x2="310.325" y1="226.509" y2="256.565" gradientUnits="userSpaceOnUse"></linearGradient><linearGradient xlink:href="#e" id="ac" x1="360.407" x2="436.451" y1="123.207" y2="257.51" gradientUnits="userSpaceOnUse"></linearGradient><linearGradient xlink:href="#e" id="ad" x1="421.886" x2="466.519" y1="226.643" y2="226.643" gradientUnits="userSpaceOnUse"></linearGradient><linearGradient xlink:href="#e" id="ae" x1="418.974" x2="418.974" y1="226.509" y2="256.565" gradientUnits="userSpaceOnUse"></linearGradient><linearGradient xlink:href="#e" id="af" x1="34.46" x2="110.504" y1="206.122" y2="340.425" gradientUnits="userSpaceOnUse"></linearGradient><linearGradient xlink:href="#e" id="ag" x1="95.939" x2="140.572" y1="309.558" y2="309.558" gradientUnits="userSpaceOnUse"></linearGradient><linearGradient xlink:href="#e" id="ah" x1="93.026" x2="93.026" y1="309.423" y2="339.479" gradientUnits="userSpaceOnUse"></linearGradient><linearGradient xlink:href="#e" id="ai" x1="143.109" x2="219.153" y1="206.122" y2="340.425" gradientUnits="userSpaceOnUse"></linearGradient><linearGradient xlink:href="#e" id="aj" x1="204.588" x2="249.221" y1="309.558" y2="309.558" gradientUnits="userSpaceOnUse"></linearGradient><linearGradient xlink:href="#e" id="ak" x1="201.676" x2="201.676" y1="309.423" y2="339.479" gradientUnits="userSpaceOnUse"></linearGradient><linearGradient xlink:href="#e" id="al" x1="251.758" x2="327.802" y1="206.122" y2="340.425" gradientUnits="userSpaceOnUse"></linearGradient><linearGradient xlink:href="#e" id="am" x1="313.237" x2="357.87" y1="309.558" y2="309.558" gradientUnits="userSpaceOnUse"></linearGradient><linearGradient xlink:href="#e" id="an" x1="310.325" x2="310.325" y1="309.423" y2="339.479" gradientUnits="userSpaceOnUse"></linearGradient><linearGradient xlink:href="#e" id="ao" x1="360.407" x2="436.451" y1="206.122" y2="340.425" gradientUnits="userSpaceOnUse"></linearGradient><linearGradient xlink:href="#e" id="ap" x1="421.886" x2="466.519" y1="309.558" y2="309.558" gradientUnits="userSpaceOnUse"></linearGradient><linearGradient xlink:href="#e" id="aq" x1="418.974" x2="418.974" y1="309.423" y2="339.479" gradientUnits="userSpaceOnUse"></linearGradient><linearGradient xlink:href="#e" id="ar" x1="34.46" x2="110.504" y1="289.037" y2="423.34" gradientUnits="userSpaceOnUse"></linearGradient><linearGradient xlink:href="#e" id="as" x1="95.939" x2="140.572" y1="392.473" y2="392.473" gradientUnits="userSpaceOnUse"></linearGradient><linearGradient xlink:href="#e" id="at" x1="93.026" x2="93.026" y1="392.338" y2="422.394" gradientUnits="userSpaceOnUse"></linearGradient><linearGradient id="au" x1="143.109" x2="219.153" y1="289.037" y2="423.34" gradientUnits="userSpaceOnUse"><stop offset="0" stop-color="#ffa1ae"></stop><stop offset="1" stop-color="#ff4565"></stop></linearGradient><linearGradient id="f"><stop offset="0" stop-color="#fe0364" stop-opacity="0"></stop><stop offset=".234" stop-color="#f90362" stop-opacity=".234"></stop><stop offset=".517" stop-color="#ea035b" stop-opacity=".517"></stop><stop offset=".824" stop-color="#d20250" stop-opacity=".824"></stop><stop offset="1" stop-color="#c00148"></stop></linearGradient><linearGradient xlink:href="#f" id="av" x1="204.588" x2="249.221" y1="392.473" y2="392.473" gradientUnits="userSpaceOnUse"></linearGradient><linearGradient xlink:href="#f" id="aw" x1="201.676" x2="201.676" y1="392.338" y2="422.394" gradientUnits="userSpaceOnUse"></linearGradient><linearGradient xlink:href="#e" id="ax" x1="251.758" x2="327.802" y1="289.037" y2="423.34" gradientUnits="userSpaceOnUse"></linearGradient><linearGradient xlink:href="#e" id="ay" x1="313.237" x2="357.87" y1="392.473" y2="392.473" gradientUnits="userSpaceOnUse"></linearGradient><linearGradient xlink:href="#e" id="az" x1="310.325" x2="310.325" y1="392.338" y2="422.394" gradientUnits="userSpaceOnUse"></linearGradient><linearGradient xlink:href="#e" id="aA" x1="360.407" x2="436.451" y1="289.037" y2="423.34" gradientUnits="userSpaceOnUse"></linearGradient><linearGradient xlink:href="#e" id="aB" x1="421.886" x2="466.519" y1="392.473" y2="392.473" gradientUnits="userSpaceOnUse"></linearGradient><linearGradient xlink:href="#e" id="aC" x1="418.974" x2="418.974" y1="392.338" y2="422.394" gradientUnits="userSpaceOnUse"></linearGradient><path fill="url(#g)" d="M107.351 150.451c-24.34 0-42.694-29.169-42.694-67.85s18.354-67.85 42.694-67.85 42.694 29.169 42.694 67.85-18.354 67.85-42.694 67.85zm0-28.825c3.453 0 13.869-13.841 13.869-39.025 0-25.185-10.417-39.026-13.869-39.026-3.453 0-13.869 13.841-13.869 39.026s10.417 39.025 13.869 39.025z" data-original="url(#g)"></path><path fill="url(#h)" d="M71.995 43.575h35.356c-3.453 0-13.869 13.841-13.869 39.026 0 7.767.993 14.451 2.464 19.987H66.403c-1.134-6.273-1.745-12.97-1.745-19.987 0-14.761 2.679-28.128 7.337-39.026z" data-original="url(#h)"></path><path fill="url(#i)" d="M407.932 150.451c-24.34 0-42.694-29.169-42.694-67.85s18.354-67.85 42.694-67.85 42.694 29.169 42.694 67.85-18.354 67.85-42.694 67.85zm0-28.825c3.453 0 13.869-13.841 13.869-39.025 0-25.185-10.417-39.026-13.869-39.026s-13.869 13.841-13.869 39.026 10.417 39.025 13.869 39.025z" data-original="url(#i)"></path><path fill="url(#j)" d="M372.576 43.575h35.356c-3.453 0-13.869 13.841-13.869 39.026 0 7.767.993 14.451 2.464 19.987h-29.543c-1.134-6.273-1.745-12.97-1.745-19.987 0-14.761 2.679-28.128 7.337-39.026z" data-original="url(#j)"></path><path fill="url(#k)" d="M207.545 150.451c-24.34 0-42.694-29.169-42.694-67.85s18.354-67.85 42.694-67.85 42.694 29.169 42.694 67.85-18.354 67.85-42.694 67.85zm0-28.825c3.453 0 13.869-13.841 13.869-39.025 0-25.185-10.417-39.026-13.869-39.026-3.453 0-13.869 13.841-13.869 39.026s10.416 39.025 13.869 39.025z" data-original="url(#k)"></path><path fill="url(#l)" d="M172.189 43.575h35.356c-3.453 0-13.869 13.841-13.869 39.026 0 7.767.993 14.451 2.464 19.987h-29.543c-1.134-6.273-1.745-12.97-1.745-19.987-.001-14.761 2.679-28.128 7.337-39.026z" data-original="url(#l)"></path><path fill="url(#m)" d="M307.739 150.451c-24.34 0-42.694-29.169-42.694-67.85s18.354-67.85 42.694-67.85 42.694 29.169 42.694 67.85-18.355 67.85-42.694 67.85zm0-28.825c3.453 0 13.869-13.841 13.869-39.025 0-25.185-10.417-39.026-13.869-39.026S293.87 57.416 293.87 82.601c-.001 25.185 10.416 39.025 13.869 39.025z" data-original="url(#m)"></path><path fill="url(#n)" d="M272.382 43.575h35.356c-3.453 0-13.869 13.841-13.869 39.026 0 7.767.993 14.451 2.464 19.987H266.79c-1.134-6.273-1.745-12.97-1.745-19.987 0-14.761 2.679-28.128 7.337-39.026z" data-original="url(#n)"></path><path fill="url(#o)" d="M512 449.471V118.453c0-26.387-21.391-47.778-47.778-47.778H47.778C21.391 70.675 0 92.066 0 118.453v331.018c0 26.387 21.391 47.778 47.778 47.778h416.444c26.387 0 47.778-21.391 47.778-47.778z" data-original="url(#o)"></path><path fill="url(#p)" d="M0 449.471V212.363h512v237.108c0 26.387-21.391 47.778-47.778 47.778H47.778C21.391 497.249 0 475.858 0 449.471z" data-original="url(#p)"></path><path fill="url(#q)" d="M262.313 70.675h201.909c26.387 0 47.778 21.391 47.778 47.778v331.018c0 26.387-21.391 47.778-47.778 47.778H262.313z" data-original="url(#q)"></path><path fill="url(#r)" d="M479.02 96.206 37.627 460.026l37.223 37.223h389.372c26.387 0 47.778-21.391 47.778-47.778V129.187z" data-original="url(#r)" class=""></path><path fill="url(#s)" d="M489.915 426.638V124.177c0-24.111-19.545-43.656-43.656-43.656H65.741c-24.111 0-43.656 19.545-43.656 43.656v302.461c0 24.111 19.545 43.656 43.656 43.656h380.517c24.111 0 43.657-19.545 43.657-43.656z" data-original="url(#s)"></path><path fill="url(#t)" d="M446.259 470.294h-34.622L90.899 149.556l11.327-11.327a81.612 81.612 0 0 0 23.904-57.708h320.129c24.111 0 43.656 19.545 43.656 43.656v302.461c0 24.111-19.546 43.656-43.656 43.656z" data-original="url(#t)"></path><path fill="url(#u)" d="M489.915 124.177v302.461c0 6.358-1.37 12.392-3.814 17.84L191.179 149.556l11.327-11.327a81.612 81.612 0 0 0 23.904-57.708h219.849c24.11 0 43.656 19.546 43.656 43.656z" data-original="url(#u)"></path><path fill="url(#v)" d="M22.085 426.638V209.985h467.829v216.653c0 24.111-19.545 43.656-43.656 43.656H65.741c-24.11 0-43.656-19.545-43.656-43.656z" data-original="url(#v)" class=""></path><path fill="url(#w)" d="M261.768 80.521h184.49c24.111 0 43.656 19.545 43.656 43.656v302.461c0 24.111-19.545 43.656-43.656 43.656h-184.49z" data-original="url(#w)" class=""></path><path fill="url(#x)" d="M489.915 124.177v223.835L291.459 149.556l11.327-11.327a81.61 81.61 0 0 0 23.903-57.708h119.57c24.11 0 43.656 19.546 43.656 43.656z" data-original="url(#x)" class=""></path><path fill="url(#y)" d="M489.915 124.177v123.555l-98.176-98.176 11.327-11.327a81.61 81.61 0 0 0 23.903-57.708h19.29c24.11 0 43.656 19.546 43.656 43.656z" data-original="url(#y)" class=""></path><path fill="url(#z)" d="M107.351 156.15c13.164 0 23.836-10.672 23.836-23.836s-10.672-23.836-23.836-23.836a23.78 23.78 0 0 0-8.848 1.696l-13.246 31.101c3.542 8.723 12.1 14.875 22.094 14.875z" data-original="url(#z)" class=""></path><path fill="url(#A)" d="M107.348 150.449c8.209 0 15.738-3.321 22.114-9.212 12.521-11.553 20.58-33.01 20.58-58.64 0-.692-.011-1.384-.023-2.075a115.915 115.915 0 0 0-.922-12.729h-29.193c.715 3.816 1.176 8.071 1.28 12.729.023.68.034 1.372.034 2.075 0 11.749-2.26 21.019-5.027 27.579-3.171 7.506-6.999 11.449-8.843 11.449-1.845 0-5.673-3.943-8.843-11.449-8.786 3.517-14.989 12.095-14.989 22.137 0 3.171.623 6.191 1.752 8.959 6.365 5.868 13.882 9.177 22.08 9.177z" data-original="url(#A)"></path><path fill="url(#B)" d="M107.348 150.449c8.209 0 15.738-3.321 22.114-9.212 12.521-11.553 20.58-33.01 20.58-58.64 0-.692-.011-1.384-.023-2.075a115.915 115.915 0 0 0-.922-12.729h-29.193c.715 3.816 1.176 8.071 1.28 12.729.023.68.034 1.372.034 2.075 0 11.749-2.26 21.019-5.027 27.579-3.171 7.506-6.999 11.449-8.843 11.449-1.845 0-5.673-3.943-8.843-11.449-8.786 3.517-14.989 12.095-14.989 22.137 0 3.171.623 6.191 1.752 8.959 6.365 5.868 13.882 9.177 22.08 9.177z" data-original="url(#B)"></path><path fill="url(#C)" d="M107.348 150.449c8.209 0 15.738-3.321 22.114-9.212 12.521-11.553 20.58-33.01 20.58-58.64 0-.692-.011-1.384-.023-2.075a115.915 115.915 0 0 0-.922-12.729h-29.193c.715 3.816 1.176 8.071 1.28 12.729.023.68.034 1.372.034 2.075 0 11.749-2.26 21.019-5.027 27.579-3.171 7.506-6.999 11.449-8.843 11.449-1.845 0-5.673-3.943-8.843-11.449-8.786 3.517-14.989 12.095-14.989 22.137 0 3.171.623 6.191 1.752 8.959 6.365 5.868 13.882 9.177 22.08 9.177z" data-original="url(#C)"></path><path fill="url(#D)" d="M108.222 121.394c4.06-1.872 12.998-15.459 12.998-38.793s-8.938-36.921-12.998-38.793V14.784c23.903.69 41.823 29.602 41.823 67.817s-17.92 67.127-41.823 67.817z" data-original="url(#D)"></path><path fill="url(#E)" d="M207.545 156.15c13.164 0 23.836-10.672 23.836-23.836s-10.672-23.836-23.836-23.836a23.78 23.78 0 0 0-8.848 1.696l-13.246 31.101c3.542 8.723 12.1 14.875 22.094 14.875z" data-original="url(#E)"></path><path fill="url(#F)" d="M207.541 150.449c8.209 0 15.738-3.321 22.114-9.212 12.521-11.553 20.58-33.01 20.58-58.64 0-.692-.011-1.384-.023-2.075a115.915 115.915 0 0 0-.922-12.729h-29.193c.715 3.816 1.176 8.071 1.28 12.729.023.68.034 1.372.034 2.075 0 11.749-2.26 21.019-5.027 27.579-3.171 7.506-6.999 11.449-8.843 11.449-1.845 0-5.673-3.943-8.843-11.449-8.786 3.517-14.989 12.095-14.989 22.137 0 3.171.623 6.191 1.752 8.959 6.365 5.868 13.883 9.177 22.08 9.177z" data-original="url(#F)"></path><path fill="url(#G)" d="M207.541 150.449c8.209 0 15.738-3.321 22.114-9.212 12.521-11.553 20.58-33.01 20.58-58.64 0-.692-.011-1.384-.023-2.075a115.915 115.915 0 0 0-.922-12.729h-29.193c.715 3.816 1.176 8.071 1.28 12.729.023.68.034 1.372.034 2.075 0 11.749-2.26 21.019-5.027 27.579-3.171 7.506-6.999 11.449-8.843 11.449-1.845 0-5.673-3.943-8.843-11.449-8.786 3.517-14.989 12.095-14.989 22.137 0 3.171.623 6.191 1.752 8.959 6.365 5.868 13.883 9.177 22.08 9.177z" data-original="url(#G)"></path><path fill="url(#H)" d="M207.541 150.449c8.209 0 15.738-3.321 22.114-9.212 12.521-11.553 20.58-33.01 20.58-58.64 0-.692-.011-1.384-.023-2.075a115.915 115.915 0 0 0-.922-12.729h-29.193c.715 3.816 1.176 8.071 1.28 12.729.023.68.034 1.372.034 2.075 0 11.749-2.26 21.019-5.027 27.579-3.171 7.506-6.999 11.449-8.843 11.449-1.845 0-5.673-3.943-8.843-11.449-8.786 3.517-14.989 12.095-14.989 22.137 0 3.171.623 6.191 1.752 8.959 6.365 5.868 13.883 9.177 22.08 9.177z" data-original="url(#H)"></path><path fill="url(#I)" d="M208.416 121.394c4.06-1.872 12.999-15.459 12.999-38.793s-8.938-36.921-12.999-38.793V14.784c23.903.69 41.823 29.602 41.823 67.817s-17.92 67.127-41.823 67.817z" data-original="url(#I)"></path><path fill="url(#J)" d="M307.739 156.15c13.164 0 23.836-10.672 23.836-23.836s-10.672-23.836-23.836-23.836a23.78 23.78 0 0 0-8.848 1.696l-13.246 31.101c3.542 8.723 12.099 14.875 22.094 14.875z" data-original="url(#J)"></path><path fill="url(#K)" d="M307.735 150.449c8.209 0 15.738-3.321 22.114-9.212 12.521-11.553 20.58-33.01 20.58-58.64 0-.692-.011-1.384-.023-2.075a115.915 115.915 0 0 0-.922-12.729h-29.193c.715 3.816 1.176 8.071 1.28 12.729.023.68.034 1.372.034 2.075 0 11.749-2.26 21.019-5.027 27.579-3.171 7.506-6.999 11.449-8.843 11.449-1.845 0-5.673-3.943-8.843-11.449-8.786 3.517-14.989 12.095-14.989 22.137 0 3.171.622 6.191 1.752 8.959 6.365 5.868 13.882 9.177 22.08 9.177z" data-original="url(#K)"></path><path fill="url(#L)" d="M307.735 150.449c8.209 0 15.738-3.321 22.114-9.212 12.521-11.553 20.58-33.01 20.58-58.64 0-.692-.011-1.384-.023-2.075a115.915 115.915 0 0 0-.922-12.729h-29.193c.715 3.816 1.176 8.071 1.28 12.729.023.68.034 1.372.034 2.075 0 11.749-2.26 21.019-5.027 27.579-3.171 7.506-6.999 11.449-8.843 11.449-1.845 0-5.673-3.943-8.843-11.449-8.786 3.517-14.989 12.095-14.989 22.137 0 3.171.622 6.191 1.752 8.959 6.365 5.868 13.882 9.177 22.08 9.177z" data-original="url(#L)"></path><path fill="url(#M)" d="M307.735 150.449c8.209 0 15.738-3.321 22.114-9.212 12.521-11.553 20.58-33.01 20.58-58.64 0-.692-.011-1.384-.023-2.075a115.915 115.915 0 0 0-.922-12.729h-29.193c.715 3.816 1.176 8.071 1.28 12.729.023.68.034 1.372.034 2.075 0 11.749-2.26 21.019-5.027 27.579-3.171 7.506-6.999 11.449-8.843 11.449-1.845 0-5.673-3.943-8.843-11.449-8.786 3.517-14.989 12.095-14.989 22.137 0 3.171.622 6.191 1.752 8.959 6.365 5.868 13.882 9.177 22.08 9.177z" data-original="url(#M)"></path><path fill="url(#N)" d="M308.61 121.394c4.06-1.872 12.999-15.459 12.999-38.793s-8.938-36.921-12.999-38.793V14.784c23.903.69 41.823 29.602 41.823 67.817s-17.92 67.127-41.823 67.817z" data-original="url(#N)"></path><path fill="url(#O)" d="M407.932 156.15c13.164 0 23.836-10.672 23.836-23.836s-10.672-23.836-23.836-23.836a23.78 23.78 0 0 0-8.848 1.696l-13.246 31.101c3.542 8.723 12.1 14.875 22.094 14.875z" data-original="url(#O)"></path><path fill="url(#P)" d="M407.929 150.449c8.209 0 15.738-3.321 22.114-9.212 12.521-11.553 20.58-33.01 20.58-58.64 0-.692-.011-1.384-.023-2.075a115.915 115.915 0 0 0-.922-12.729h-29.193c.715 3.816 1.176 8.071 1.28 12.729.023.68.034 1.372.034 2.075 0 11.749-2.26 21.019-5.027 27.579-3.171 7.506-6.999 11.449-8.843 11.449-1.845 0-5.673-3.943-8.843-11.449-8.786 3.517-14.989 12.095-14.989 22.137 0 3.171.622 6.191 1.752 8.959 6.365 5.868 13.882 9.177 22.08 9.177z" data-original="url(#P)"></path><path fill="url(#Q)" d="M407.929 150.449c8.209 0 15.738-3.321 22.114-9.212 12.521-11.553 20.58-33.01 20.58-58.64 0-.692-.011-1.384-.023-2.075a115.915 115.915 0 0 0-.922-12.729h-29.193c.715 3.816 1.176 8.071 1.28 12.729.023.68.034 1.372.034 2.075 0 11.749-2.26 21.019-5.027 27.579-3.171 7.506-6.999 11.449-8.843 11.449-1.845 0-5.673-3.943-8.843-11.449-8.786 3.517-14.989 12.095-14.989 22.137 0 3.171.622 6.191 1.752 8.959 6.365 5.868 13.882 9.177 22.08 9.177z" data-original="url(#Q)"></path><path fill="url(#R)" d="M407.929 150.449c8.209 0 15.738-3.321 22.114-9.212 12.521-11.553 20.58-33.01 20.58-58.64 0-.692-.011-1.384-.023-2.075a115.915 115.915 0 0 0-.922-12.729h-29.193c.715 3.816 1.176 8.071 1.28 12.729.023.68.034 1.372.034 2.075 0 11.749-2.26 21.019-5.027 27.579-3.171 7.506-6.999 11.449-8.843 11.449-1.845 0-5.673-3.943-8.843-11.449-8.786 3.517-14.989 12.095-14.989 22.137 0 3.171.622 6.191 1.752 8.959 6.365 5.868 13.882 9.177 22.08 9.177z" data-original="url(#R)"></path><path fill="url(#S)" d="M408.803 121.394c4.06-1.872 12.999-15.459 12.999-38.793s-8.938-36.921-12.999-38.793V14.784c23.903.69 41.823 29.602 41.823 67.817s-17.92 67.127-41.823 67.817z" data-original="url(#S)"></path><path fill="url(#T)" d="M118.648 255.063H67.405c-10.351 0-18.742-8.391-18.742-18.742v-19.355c0-10.351 8.391-18.742 18.742-18.742h51.243c10.351 0 18.742 8.391 18.742 18.742v19.355c0 10.351-8.391 18.742-18.742 18.742z" data-original="url(#T)"></path><path fill="url(#U)" d="M118.648 198.224H71.967v56.838h46.681c10.351 0 18.742-8.391 18.742-18.742v-19.355c0-10.35-8.391-18.741-18.742-18.741z" data-original="url(#U)"></path><path fill="url(#V)" d="M48.663 219.368v16.953c0 10.351 8.391 18.742 18.742 18.742h51.243c10.351 0 18.742-8.391 18.742-18.742v-16.953z" data-original="url(#V)"></path><path fill="url(#W)" d="M227.297 255.063h-51.243c-10.351 0-18.742-8.391-18.742-18.742v-19.355c0-10.351 8.391-18.742 18.742-18.742h51.243c10.351 0 18.742 8.391 18.742 18.742v19.355c0 10.351-8.391 18.742-18.742 18.742z" data-original="url(#W)"></path><path fill="url(#X)" d="M227.297 198.224h-46.681v56.838h46.681c10.351 0 18.742-8.391 18.742-18.742v-19.355c0-10.35-8.391-18.741-18.742-18.741z" data-original="url(#X)"></path><path fill="url(#Y)" d="M157.312 219.368v16.953c0 10.351 8.391 18.742 18.742 18.742h51.243c10.351 0 18.742-8.391 18.742-18.742v-16.953z" data-original="url(#Y)"></path><path fill="url(#Z)" d="M335.946 255.063h-51.243c-10.351 0-18.742-8.391-18.742-18.742v-19.355c0-10.351 8.391-18.742 18.742-18.742h51.243c10.351 0 18.742 8.391 18.742 18.742v19.355c0 10.351-8.391 18.742-18.742 18.742z" data-original="url(#Z)"></path><path fill="url(#aa)" d="M335.946 198.224h-46.681v56.838h46.681c10.351 0 18.742-8.391 18.742-18.742v-19.355c0-10.35-8.391-18.741-18.742-18.741z" data-original="url(#aa)" class=""></path><path fill="url(#ab)" d="M265.961 219.368v16.953c0 10.351 8.391 18.742 18.742 18.742h51.243c10.351 0 18.742-8.391 18.742-18.742v-16.953z" data-original="url(#ab)" class=""></path><path fill="url(#ac)" d="M444.595 255.063h-51.243c-10.351 0-18.742-8.391-18.742-18.742v-19.355c0-10.351 8.391-18.742 18.742-18.742h51.243c10.351 0 18.742 8.391 18.742 18.742v19.355c0 10.351-8.391 18.742-18.742 18.742z" data-original="url(#ac)"></path><path fill="url(#ad)" d="M444.595 198.224h-46.681v56.838h46.681c10.351 0 18.742-8.391 18.742-18.742v-19.355c0-10.35-8.391-18.741-18.742-18.741z" data-original="url(#ad)"></path><path fill="url(#ae)" d="M374.61 219.368v16.953c0 10.351 8.391 18.742 18.742 18.742h51.243c10.351 0 18.742-8.391 18.742-18.742v-16.953z" data-original="url(#ae)" class=""></path><path fill="url(#af)" d="M118.648 337.977H67.405c-10.351 0-18.742-8.391-18.742-18.742V299.88c0-10.351 8.391-18.742 18.742-18.742h51.243c10.351 0 18.742 8.391 18.742 18.742v19.355c0 10.351-8.391 18.742-18.742 18.742z" data-original="url(#af)" class=""></path><path fill="url(#ag)" d="M118.648 281.139H71.967v56.838h46.681c10.351 0 18.742-8.391 18.742-18.742V299.88c0-10.35-8.391-18.741-18.742-18.741z" data-original="url(#ag)"></path><path fill="url(#ah)" d="M48.663 302.283v16.953c0 10.351 8.391 18.742 18.742 18.742h51.243c10.351 0 18.742-8.391 18.742-18.742v-16.953z" data-original="url(#ah)"></path><path fill="url(#ai)" d="M227.297 337.977h-51.243c-10.351 0-18.742-8.391-18.742-18.742V299.88c0-10.351 8.391-18.742 18.742-18.742h51.243c10.351 0 18.742 8.391 18.742 18.742v19.355c0 10.351-8.391 18.742-18.742 18.742z" data-original="url(#ai)"></path><path fill="url(#aj)" d="M227.297 281.139h-46.681v56.838h46.681c10.351 0 18.742-8.391 18.742-18.742V299.88c0-10.35-8.391-18.741-18.742-18.741z" data-original="url(#aj)"></path><path fill="url(#ak)" d="M157.312 302.283v16.953c0 10.351 8.391 18.742 18.742 18.742h51.243c10.351 0 18.742-8.391 18.742-18.742v-16.953z" data-original="url(#ak)"></path><path fill="url(#al)" d="M335.946 337.977h-51.243c-10.351 0-18.742-8.391-18.742-18.742V299.88c0-10.351 8.391-18.742 18.742-18.742h51.243c10.351 0 18.742 8.391 18.742 18.742v19.355c0 10.351-8.391 18.742-18.742 18.742z" data-original="url(#al)" class=""></path><path fill="url(#am)" d="M335.946 281.139h-46.681v56.838h46.681c10.351 0 18.742-8.391 18.742-18.742V299.88c0-10.35-8.391-18.741-18.742-18.741z" data-original="url(#am)"></path><path fill="url(#an)" d="M265.961 302.283v16.953c0 10.351 8.391 18.742 18.742 18.742h51.243c10.351 0 18.742-8.391 18.742-18.742v-16.953z" data-original="url(#an)" class=""></path><path fill="url(#ao)" d="M444.595 337.977h-51.243c-10.351 0-18.742-8.391-18.742-18.742V299.88c0-10.351 8.391-18.742 18.742-18.742h51.243c10.351 0 18.742 8.391 18.742 18.742v19.355c0 10.351-8.391 18.742-18.742 18.742z" data-original="url(#ao)"></path><path fill="url(#ap)" d="M444.595 281.139h-46.681v56.838h46.681c10.351 0 18.742-8.391 18.742-18.742V299.88c0-10.35-8.391-18.741-18.742-18.741z" data-original="url(#ap)" class=""></path><path fill="url(#aq)" d="M374.61 302.283v16.953c0 10.351 8.391 18.742 18.742 18.742h51.243c10.351 0 18.742-8.391 18.742-18.742v-16.953z" data-original="url(#aq)"></path><path fill="url(#ar)" d="M118.648 420.892H67.405c-10.351 0-18.742-8.391-18.742-18.742v-19.355c0-10.351 8.391-18.742 18.742-18.742h51.243c10.351 0 18.742 8.391 18.742 18.742v19.355c0 10.351-8.391 18.742-18.742 18.742z" data-original="url(#ar)"></path><path fill="url(#as)" d="M118.648 364.054H71.967v56.838h46.681c10.351 0 18.742-8.391 18.742-18.742v-19.355c0-10.35-8.391-18.741-18.742-18.741z" data-original="url(#as)"></path><path fill="url(#at)" d="M48.663 385.197v16.953c0 10.351 8.391 18.742 18.742 18.742h51.243c10.351 0 18.742-8.391 18.742-18.742v-16.953z" data-original="url(#at)"></path><path fill="url(#au)" d="M227.297 420.892h-51.243c-10.351 0-18.742-8.391-18.742-18.742v-19.355c0-10.351 8.391-18.742 18.742-18.742h51.243c10.351 0 18.742 8.391 18.742 18.742v19.355c0 10.351-8.391 18.742-18.742 18.742z" data-original="url(#au)"></path><path fill="url(#av)" d="M227.297 364.054h-46.681v56.838h46.681c10.351 0 18.742-8.391 18.742-18.742v-19.355c0-10.35-8.391-18.741-18.742-18.741z" data-original="url(#av)"></path><path fill="url(#aw)" d="M157.312 385.197v16.953c0 10.351 8.391 18.742 18.742 18.742h51.243c10.351 0 18.742-8.391 18.742-18.742v-16.953z" data-original="url(#aw)"></path><path fill="url(#ax)" d="M335.946 420.892h-51.243c-10.351 0-18.742-8.391-18.742-18.742v-19.355c0-10.351 8.391-18.742 18.742-18.742h51.243c10.351 0 18.742 8.391 18.742 18.742v19.355c0 10.351-8.391 18.742-18.742 18.742z" data-original="url(#ax)"></path><path fill="url(#ay)" d="M335.946 364.054h-46.681v56.838h46.681c10.351 0 18.742-8.391 18.742-18.742v-19.355c0-10.35-8.391-18.741-18.742-18.741z" data-original="url(#ay)"></path><path fill="url(#az)" d="M265.961 385.197v16.953c0 10.351 8.391 18.742 18.742 18.742h51.243c10.351 0 18.742-8.391 18.742-18.742v-16.953z" data-original="url(#az)"></path><path fill="url(#aA)" d="M444.595 420.892h-51.243c-10.351 0-18.742-8.391-18.742-18.742v-19.355c0-10.351 8.391-18.742 18.742-18.742h51.243c10.351 0 18.742 8.391 18.742 18.742v19.355c0 10.351-8.391 18.742-18.742 18.742z" data-original="url(#aA)"></path><path fill="url(#aB)" d="M444.595 364.054h-46.681v56.838h46.681c10.351 0 18.742-8.391 18.742-18.742v-19.355c0-10.35-8.391-18.741-18.742-18.741z" data-original="url(#aB)"></path><path fill="url(#aC)" d="M374.61 385.197v16.953c0 10.351 8.391 18.742 18.742 18.742h51.243c10.351 0 18.742-8.391 18.742-18.742v-16.953z" data-original="url(#aC)"></path></g></svg>