<svg xmlns="http://www.w3.org/2000/svg" version="1.1" xmlns:xlink="http://www.w3.org/1999/xlink" xmlns:svgjs="http://svgjs.com/svgjs" width="512" height="512" x="0" y="0" viewBox="0 0 64 64" style="enable-background:new 0 0 512 512" xml:space="preserve" class=""><g><circle cx="32.44" cy="32" r="25.91" fill="#fadf01" data-original="#fadf01"></circle><g fill="#fff"><path d="M48.08 15.83c4.57 3.98 7.53 10.03 7.37 16.17-.02.55-.48.99-1.03.97-.53-.02-.95-.45-.97-.97-.1-2.79-.66-5.56-1.7-8.17s-2.57-5.05-4.46-7.2c-.47-.5.28-1.26.79-.8zM38.37 10.12c1.34.06 7.44 1.56 6.1 3.56-.3.39-.82.5-1.24.29-.87-.43-1.7-.93-2.55-1.4s-1.73-.91-2.62-1.37c-.55-.26-.29-1.15.31-1.08z" fill="#ffffff" data-original="#ffffff"></path><circle cx="22.39" cy="26.74" r="6.48" fill="#ffffff" data-original="#ffffff"></circle></g><circle cx="22.39" cy="26.74" r="3.62" fill="#724a03" data-original="#724a03"></circle><circle cx="42.49" cy="26.74" r="6.48" fill="#ffffff" data-original="#ffffff"></circle><circle cx="42.49" cy="26.74" r="3.62" fill="#724a03" data-original="#724a03"></circle><path fill="#724a03" d="M25.56 41.07c3.48 3.97 9.81 4.09 13.48.44.91-.88 2.29.45 1.44 1.39-4.13 4.74-12.44 4.08-15.8-1.14-.39-.57.43-1.21.89-.69z" data-original="#724a03"></path></g></svg>