<svg xmlns="http://www.w3.org/2000/svg" version="1.1" xmlns:xlink="http://www.w3.org/1999/xlink" xmlns:svgjs="http://svgjs.com/svgjs" width="512" height="512" x="0" y="0" viewBox="0 0 496.004 496" style="enable-background:new 0 0 512 512" xml:space="preserve" class=""><g><path d="M131.46 192.117c1.536-2.316 3.118-4.59 4.806-6.808l3.441-4.52-4.031-2.351c-13.809-8.051-29.692-12.305-45.946-12.305C40.254 166.129 0 205.34 0 253.53v26.856c0 4.965 4.164 9.008 9.285 9.008h100.399v-25.391c0-2.926.132-6.02.41-9.734l.136-1.786a131.88 131.88 0 0 1 1.211-9.675l.079-.426a131.35 131.35 0 0 1 2.144-10.203 130.224 130.224 0 0 1 2.926-9.828l-3.953-1.305 4.191.605a130.87 130.87 0 0 1 7.988-18.355l.684-1.293a127.638 127.638 0 0 1 4.68-7.934zM89.73 143.813c26.165 0 47.45-20.723 47.45-46.196 0-25.472-21.285-46.195-47.45-46.195-26.164 0-47.449 20.723-47.449 46.2 0 25.468 21.285 46.19 47.45 46.19zM373.504 255.938a100.048 100.048 0 0 0-.297-3.758c-.082-.836-.2-1.664-.3-2.496a101.575 101.575 0 0 0-.434-3.325c-.13-.855-.29-1.71-.438-2.566-.187-1.074-.375-2.148-.59-3.215-.168-.828-.36-1.652-.547-2.48a112.308 112.308 0 0 0-.77-3.25c-.194-.77-.41-1.536-.62-2.297-.317-1.14-.645-2.278-.996-3.403-.211-.675-.434-1.351-.653-2.023-.402-1.219-.824-2.43-1.261-3.633-.211-.562-.418-1.12-.633-1.683a109.639 109.639 0 0 0-1.594-3.918 92.637 92.637 0 0 0-.559-1.297 123.01 123.01 0 0 0-1.972-4.239c-.145-.292-.285-.585-.43-.875a116.925 116.925 0 0 0-2.39-4.542c-.086-.16-.176-.32-.262-.481a119.031 119.031 0 0 0-2.852-4.816l-.054-.09c-21.727-34.766-61.012-58.028-105.774-58.028-38.246 0-72.488 16.993-95.203 43.622l-.508.601a122.581 122.581 0 0 0-3.047 3.777c-.222.286-.449.579-.672.872a123.61 123.61 0 0 0-2.62 3.582c-.29.41-.579.816-.86 1.234a132.087 132.087 0 0 0-2.164 3.281c-.352.555-.711 1.102-1.05 1.66-.579.938-1.13 1.891-1.68 2.84-.426.738-.864 1.469-1.27 2.215-.387.7-.746 1.414-1.121 2.129-.524 1-1.055 1.992-1.551 3.008-.035.066-.062.136-.098.207a118.707 118.707 0 0 0-7.343 19.219c-.067.234-.137.464-.204.695a122.272 122.272 0 0 0-1.074 4.195c-.105.434-.21.867-.308 1.297a121.175 121.175 0 0 0-.809 3.863c-.117.598-.223 1.196-.328 1.793a118.894 118.894 0 0 0-.57 3.535 93.226 93.226 0 0 0-.309 2.368c-.129 1.035-.258 2.066-.36 3.105-.105 1.063-.175 2.129-.253 3.195-.055.805-.13 1.61-.168 2.418-.094 1.91-.153 3.832-.153 5.762v37.774c0 5.64 4.754 10.226 10.59 10.226h226.278c5.836 0 10.59-4.586 10.59-10.226v-37.766c0-1.992-.055-3.977-.157-5.945-.035-.707-.105-1.414-.152-2.121zM247.184 117.496c33.293 0 60.375-26.355 60.375-58.746S280.477.004 247.184.004s-60.375 26.355-60.375 58.746 27.086 58.746 60.375 58.746zM406.27 159.918c-17.606 0-34.696 4.996-49.41 14.453l-3.895 2.5 2.945 3.54a132.492 132.492 0 0 1 16.86 25.89l.203.418c.847 1.726 1.66 3.476 2.453 5.273l.293.672c.742 1.73 1.449 3.473 2.242 5.543l.152.387a128.947 128.947 0 0 1 3.871 12.133l.246 1a118.95 118.95 0 0 1 1.168 4.925l.426 2.13a118.732 118.732 0 0 1 1.098 6.35c.187 1.278.36 2.555.504 3.852.09.805.187 1.606.265 2.41.137 1.387.235 2.782.32 4.18l.141 2.102c.102 2.097.168 4.203.168 6.316v19.18H486.72c5.12 0 9.285-4.043 9.285-9.012v-26.855c-.004-48.18-40.258-87.387-89.734-87.387zM406.27 139.758c26.164 0 47.449-20.723 47.449-46.196s-21.285-46.195-47.45-46.195c-26.164 0-47.449 20.723-47.449 46.196s21.285 46.195 47.45 46.195zm0 0" fill="#2e81f4" data-original="#000000" class=""></path></g></svg>