<svg xmlns="http://www.w3.org/2000/svg" version="1.1" xmlns:xlink="http://www.w3.org/1999/xlink" xmlns:svgjs="http://svgjs.com/svgjs" width="512" height="512" x="0" y="0" viewBox="0 0 512 512" style="enable-background:new 0 0 512 512" xml:space="preserve" class=""><g><g style="clip-rule:evenodd;fill-rule:evenodd;stroke-width:22;stroke-linecap:round;stroke-linejoin:round;stroke-miterlimit:10"><path fill="#ef5350" d="M49.684 90.26C22.348 90.26 0 112.61 0 139.946v232.11c0 27.335 22.348 49.684 49.684 49.684h232.112c27.336 0 49.684-22.349 49.684-49.684v-232.11c0-27.336-22.348-49.686-49.684-49.686z" data-original="#ef5350" class=""></path><path fill="#f44336" d="M259.797 90.26c27.335 0 49.683 22.35 49.683 49.685v232.112c0 27.335-22.348 49.683-49.683 49.683h22c27.335 0 49.683-22.348 49.683-49.683V139.945c0-27.335-22.348-49.685-49.683-49.685z" data-original="#f44336"></path><path fill="#ffebee" d="M165.773 182.914c-15.43.124-30.82 5.05-43.771 14.764l-48.463 36.347c-14.412 10.81-14.412 33.131 0 43.94L122 314.31c25.857 19.391 61.624 19.112 87.174-.682l49.11-38.045c14.241-11.032 13.89-33.354-.692-43.932a11.001 11.001 0 0 0-.002 0l-47.813-34.675c-13.105-9.505-28.574-14.187-44.004-14.063z" data-original="#ffebee"></path><path fill="#ffcdd2" d="M165.773 182.914c-3.445.028-6.885.331-10.3.838a73.716 73.716 0 0 1 32.304 13.225l47.813 34.675a11.001 11.001 0 0 0 .002 0c14.582 10.578 14.933 32.9.691 43.932l-49.11 38.045c-9.9 7.67-21.338 12.373-33.136 14.174 19.089 2.968 39.12-1.766 55.137-14.174l49.11-38.045c14.241-11.032 13.89-33.354-.692-43.932a11.001 11.001 0 0 0-.002 0l-47.813-34.675c-13.105-9.505-28.574-14.187-44.004-14.063z" data-original="#ffcdd2"></path><path fill="#ef5350" d="M165.74 219.205c-20.186 0-36.787 16.6-36.787 36.787s16.6 36.788 36.788 36.788c20.187 0 36.787-16.602 36.787-36.788s-16.6-36.787-36.787-36.787z" data-original="#ef5350" class=""></path><path fill="#f44336" d="M165.74 219.205c-3.825 0-7.52.598-11 1.701 14.881 4.72 25.787 18.725 25.787 35.086s-10.906 30.365-25.787 35.086a36.317 36.317 0 0 0 11 1.701c20.187 0 36.787-16.6 36.787-36.787s-16.6-36.787-36.787-36.787z" data-original="#f44336"></path><path fill="#e0e0e0" d="M485.373 102.299a25.25 25.25 0 0 0-13.53 3.623l-83.337 50.002a56.581 56.581 0 0 0-27.451 48.49l.008 103.158a56.598 56.598 0 0 0 27.457 48.49l83.324 50c17.2 10.322 40.156-2.674 40.156-22.734V128.656c0-15.044-12.914-26.116-26.627-26.357z" data-original="#e0e0e0" class=""></path><path fill="#bdbdbd" d="M485.373 102.299c-3.784-.067-7.616.75-11.268 2.476 9.027 4.091 15.895 12.919 15.895 23.881v254.672c0 10.966-6.877 19.786-15.906 23.875C490.979 415.201 512 402.53 512 383.328V128.656c0-15.044-12.914-26.116-26.627-26.357z" data-original="#bdbdbd"></path></g></g></svg>