<svg xmlns="http://www.w3.org/2000/svg" version="1.1" xmlns:xlink="http://www.w3.org/1999/xlink" xmlns:svgjs="http://svgjs.com/svgjs" width="512" height="512" x="0" y="0" viewBox="0 0 32 32" style="enable-background:new 0 0 512 512" xml:space="preserve" class=""><g><circle cx="16" cy="16" r="9" fill="#e6ecff" data-original="#e6ecff"></circle><path fill="#b7c6e2" d="M25 16a8.999 8.999 0 0 1-17.59 2.68 47.166 47.166 0 0 0 16.5-6.97A8.905 8.905 0 0 1 25 16z" data-original="#b7c6e2" class=""></path><path fill="#4294ff" d="M18.828 17.414 17 15.586V13a1 1 0 0 0-2 0v3a1.013 1.013 0 0 0 .294.708l2.12 2.12a1 1 0 0 0 1.414-1.414z" data-original="#4294ff" class=""></path><path fill="#4294ff" d="M16 2a1 1 0 0 0 0 2 12.05 12.05 0 1 1-8.313 3.374l-.068.518a1 1 0 0 0 1.983.26l.39-2.975a1.025 1.025 0 0 0-.863-1.121l-2.974-.389a1 1 0 1 0-.259 1.982l.623.082A13.975 13.975 0 1 0 16 2z" data-original="#4294ff" class=""></path><path fill="#2965ed" d="M18.83 18.83a1.014 1.014 0 0 1-1.42 0l-2.12-2.12a1.032 1.032 0 0 1-.21-.33c0-.01-.01-.01-.01-.02.63-.24 1.27-.51 1.93-.8v.03l1.83 1.82a1.008 1.008 0 0 1 0 1.42z" data-original="#2965ed"></path></g></svg>