<svg xmlns="http://www.w3.org/2000/svg" version="1.1" xmlns:xlink="http://www.w3.org/1999/xlink" xmlns:svgjs="http://svgjs.com/svgjs" width="512" height="512" x="0" y="0" viewBox="0 0 32 32" style="enable-background:new 0 0 512 512" xml:space="preserve" class=""><g><g data-name="Layer 2"><circle cx="16" cy="26" r="3.75" fill="gray" data-original="#f78b81" opacity="1"></circle><g fill="#ffd671"><path d="m28.015 18.905-.008-.025a3.43 3.43 0 0 0-1.942-2.244l-1-.437a1.247 1.247 0 0 1-.655-.675L22.156 9.98a6.761 6.761 0 0 0-8-3.977l-1.36.364a6.76 6.76 0 0 0-4.938 7.445l.82 5.927a1.243 1.243 0 0 1-.231.912l-.647.88a3.451 3.451 0 0 0 2.781 5.496 3.475 3.475 0 0 0 .892-.117l14.102-3.78a3.454 3.454 0 0 0 2.44-4.225z" fill="gray" data-original="#ffd671" class="" opacity="1"></path><path d="M13 7.75A2.75 2.75 0 1 1 15.75 5 2.753 2.753 0 0 1 13 7.75zm0-4A1.25 1.25 0 1 0 14.25 5 1.251 1.251 0 0 0 13 3.75z" fill="gray" data-original="#ffd671" class="" opacity="1"></path></g></g></g></svg>