<svg xmlns="http://www.w3.org/2000/svg" version="1.1" xmlns:xlink="http://www.w3.org/1999/xlink" xmlns:svgjs="http://svgjs.com/svgjs" width="512" height="512" x="0" y="0" viewBox="0 0 511.999 511.999" style="enable-background:new 0 0 512 512" xml:space="preserve" class="hovered-paths"><g><g fill="#60b9fe"><path d="M388.142 244.989a17.476 17.476 0 0 1-2.933-6.622l-4.339 2.817h-65.435l-116.221 83.102-9.469 16.881H430.87c.359 0 .715-.012 1.067-.036 10.694-.723 16.149-13.311 9.865-21.995zM431.937 128.297a15.733 15.733 0 0 0-1.067-.036h-40.033l-8.52 8.52v80.365l7.441 5.061 52.044-71.916c6.284-8.683.829-21.271-9.865-21.994z" fill="#60b9fe" data-original="#60b9fe" class=""></path></g><path fill="#1ca8ff" d="M375.245 245.05c4.135 0 7.883-1.621 10.674-4.247a17.516 17.516 0 0 1 2.224-16.363l2.694-3.723v-92.455h-50.994l-8.765 10.962V230l-21.049 15.05z" data-original="#1ca8ff" class=""></path><path fill="#0094fd" d="M317.105 239.99H184.791s-10.638 2.981-10.638 6.294v79.29c0 8.611 6.981 15.592 15.592 15.592L324.25 245.05z" data-original="#0094fd" class="hovered-path"></path><path fill="#60b9fe" d="M324.25 32.145H160.238l-8.242 12.756s-4.211 198.065 0 193.854c1.473-1.473 2.839 1.598 4.023 6.294H324.25c8.611 0 15.592-6.981 15.592-15.592V47.736c0-8.611-6.981-15.591-15.592-15.591z" data-original="#60b9fe" class=""></path><path fill="#1ca8ff" d="M160.238 33.379h-50.471l-5.846 8.585v200.937l5.846 3.383h50.471z" data-original="#1ca8ff" class=""></path><path fill="#e39b74" d="m104.837 217.404 4.93-5.459V67.719s-2.884-5.744-4.301-7.161 0-21.891 0-21.891l4.301-5.288V9.304A9.304 9.304 0 0 0 100.462 0H76.838c-5.139 0-9.305 4.166-9.305 9.304v24.075l4.452 4.687v25.583l-4.452 4.07v144.226l4.452 5.202v22.321l-4.452 6.817v256.41A9.305 9.305 0 0 0 76.838 512h23.624a9.305 9.305 0 0 0 9.305-9.305v-256.41l-4.93-5.959z" data-original="#e39b74" class=""></path><g fill="#8bcaff"><path d="M109.767 67.719H67.533v-34.34h42.234zM109.767 246.285H67.533v-34.34h42.234z" fill="#8bcaff" data-original="#8bcaff" class=""></path></g></g></svg>