<svg xmlns="http://www.w3.org/2000/svg" version="1.1" xmlns:xlink="http://www.w3.org/1999/xlink" xmlns:svgjs="http://svgjs.com/svgjs" width="512" height="512" x="0" y="0" viewBox="0 0 512 512.043" style="enable-background:new 0 0 512 512" xml:space="preserve" class=""><g><path fill="#b0bec5" d="M229.348 458.668c-49.985 0-90.668-40.684-90.668-90.668V64.406L35.62 88c-25.473 6.7-40.746 32.96-34.008 58.668l88.364 329.918c5.867 21.336 25.472 35.457 46.507 35.457 3.946 0 7.957-.492 11.926-1.535l215.04-51.84zm0 0" data-original="#b0bec5" class=""></path><path fill="#eceff1" d="M512.016 58.668V368c0 32.426-26.243 58.668-58.668 58.668h-224c-21.973 0-41.172-12.16-51.2-30.082-4.695-8.32-7.468-18.133-7.468-28.586V58.668C170.68 26.238 196.922 0 229.348 0h224c32.425 0 58.668 26.238 58.668 58.668zm0 0" data-original="#eceff1" class=""></path><path fill="#ffc107" d="M320.016 149.332c0 23.566-19.102 42.668-42.668 42.668-23.563 0-42.668-19.102-42.668-42.668 0-23.562 19.105-42.664 42.668-42.664 23.566 0 42.668 19.102 42.668 42.664zm0 0" data-original="#ffc107"></path><path fill="#388e3c" d="M512.016 254.719V368c0 32.426-26.243 58.668-58.668 58.668h-224c-21.973 0-41.172-12.16-51.2-30.082l211.415-211.414c14.503-14.504 38.398-14.504 52.906 0zm0 0" data-original="#388e3c"></path><path fill="#4caf50" d="M449.293 426.668H229.348c-21.973 0-41.172-12.16-51.2-30.082-4.695-8.32-7.468-18.133-7.468-28.586v-49.281l58.883-58.88c14.503-14.507 38.398-14.507 52.906 0zm0 0" data-original="#4caf50" class=""></path></g></svg>