<svg xmlns="http://www.w3.org/2000/svg" version="1.1" xmlns:xlink="http://www.w3.org/1999/xlink" xmlns:svgjs="http://svgjs.com/svgjs" width="512" height="512" x="0" y="0" viewBox="0 0 512 512" style="enable-background:new 0 0 512 512" xml:space="preserve" class=""><g><linearGradient id="a" x1="256" x2="256.001" y1="512" gradientUnits="userSpaceOnUse"><stop offset="0" stop-color="#6c54a3"></stop><stop offset="1" stop-color="#00b1d2"></stop></linearGradient><path fill="url(#a)" fill-rule="evenodd" d="M359 0H153a79.579 79.579 0 0 0-79.449 79.5v419.08a13.448 13.448 0 0 0 22.907 9.5l159.55-159.595 159.534 159.6a13.436 13.436 0 0 0 9.5 3.922 12.232 12.232 0 0 0 4.96-1l.1-.044.1-.041a13.3 13.3 0 0 0 8.249-12.343V79.5A79.574 79.574 0 0 0 359 0z" data-original="url(#a)" class=""></path></g></svg>