<svg xmlns="http://www.w3.org/2000/svg" version="1.1" xmlns:xlink="http://www.w3.org/1999/xlink" xmlns:svgjs="http://svgjs.com/svgjs" width="512" height="512" x="0" y="0" viewBox="0 0 60 60" style="enable-background:new 0 0 512 512" xml:space="preserve" class=""><g><path d="M27 52h6v3h-6zM27 48h6v2h-6zM28.859 19C28.038 15.465 23.1 8.512 10.327 3.84a.959.959 0 0 0-.892.124A.994.994 0 0 0 9 4.79v6.941l16.524 7.931A1.989 1.989 0 0 1 27 19zM27 26h6v2h-6zM3 11.176a1 1 0 0 0-.531.156.984.984 0 0 0-.469.847v29.562a1.008 1.008 0 0 0 .567.9L25 53.411V21.629L3.433 11.276a1.009 1.009 0 0 0-.433-.1zm12.9 18.271a1 1 0 0 1-1.342.448l-6-3a1 1 0 0 1 .894-1.79l6 3a1 1 0 0 1 .448 1.342zm-9.8-9.866a1 1 0 0 1 1.327-.489l13 6a1 1 0 0 1-.838 1.816l-13-6a1 1 0 0 1-.497-1.327zM27 30h6v16h-6zM40 34.43l13-6.067V20.57l-13 6.067zM27 21h6v3h-6z" fill="#2e81f4" data-original="#000000" class="" opacity="1"></path><path d="M57.533 11.332a.985.985 0 0 0-.966-.056L35 21.629v31.782l22.433-10.767a1.008 1.008 0 0 0 .567-.9V12.179a.984.984 0 0 0-.467-.847zM55 28.363a2.006 2.006 0 0 1-1.155 1.813l-13 6.066A2 2 0 0 1 38 34.43v-7.793a2.006 2.006 0 0 1 1.155-1.813l13-6.066A2 2 0 0 1 55 20.57zM51 4.79a.994.994 0 0 0-.435-.826.959.959 0 0 0-.892-.124C36.9 8.512 31.962 15.465 31.141 19H33a1.989 1.989 0 0 1 1.476.662L51 11.731z" fill="#2e81f4" data-original="#000000" class="" opacity="1"></path></g></svg>