<svg xmlns="http://www.w3.org/2000/svg" version="1.1" xmlns:xlink="http://www.w3.org/1999/xlink" xmlns:svgjs="http://svgjs.com/svgjs" width="512" height="512" x="0" y="0" viewBox="0 0 512 512" style="enable-background:new 0 0 512 512" xml:space="preserve" class=""><g><path fill="#2e81f4" d="M456.403 71.629H55.597C29.034 71.629 7.5 93.163 7.5 119.726V360.21c0 26.563 21.534 48.097 48.097 48.097l414.203-7.5s34.7-14.034 34.7-40.597V119.726c0-26.563-21.534-48.097-48.097-48.097z" data-original="#4bc3ef" class="" opacity="1"></path><path fill="#ffffff" d="m339.547 225.628-124.474-62.237c-10.66-5.33-23.202 2.421-23.202 14.339v124.474c0 11.918 12.542 19.669 23.202 14.34l124.474-62.237c11.816-5.908 11.816-22.771 0-28.679z" data-original="#ffffff" class=""></path><path fill="#2e81f4" d="M55.597 384.258c-13.261 0-24.048-10.787-24.048-24.048V78.116C17.186 86.436 7.5 101.934 7.5 119.726V360.21c0 26.563 21.534 48.097 48.097 48.097h400.806c17.792 0 33.29-9.686 41.609-24.048H55.597z" data-original="#1badde" class="" opacity="1"></path><path fill="#ffffff" d="M339.547 254.307c11.816-5.908 11.816-22.771 0-28.679l-2.305-1.153-94.338 47.166c-4.994 2.497-10.826 2.251-15.594-.701-4.83-2.986-7.601-7.957-7.601-13.641v-91.591l-4.635-2.318c-10.659-5.33-23.202 2.421-23.202 14.339v124.474c0 11.918 12.543 19.669 23.202 14.34z" data-original="#e3f5ff" class="" opacity="1"></path><path d="M456.403 64.129H55.597C24.94 64.129 0 89.069 0 119.726V360.21c0 30.656 24.94 55.597 55.597 55.597h352.71a7.5 7.5 0 0 0 0-15H55.597C33.211 400.807 15 382.595 15 360.21V119.726c0-22.385 18.211-40.597 40.597-40.597h400.807c22.385 0 40.597 18.212 40.597 40.597V360.21c0 22.385-18.211 40.597-40.597 40.597h-16.032a7.5 7.5 0 0 0 0 15h16.032c30.656 0 55.597-24.94 55.597-55.597V119.726C512 89.069 487.06 64.129 456.403 64.129zM408.307 432.871H103.693a7.5 7.5 0 0 0 0 15h304.613a7.5 7.5 0 0 0 .001-15z" fill="#000000" data-original="#000000" class=""></path><path d="M203.417 170.473c2.572-1.589 5.598-1.725 8.302-.374l16.878 8.439a7.5 7.5 0 0 0 6.708-13.416l-16.878-8.439c-7.349-3.674-15.908-3.289-22.896 1.03s-11.16 11.802-11.16 20.018v124.473c0 8.216 4.172 15.699 11.161 20.018 3.803 2.351 8.072 3.536 12.357 3.536 3.588 0 7.189-.831 10.538-2.505L342.9 261.016c8.024-4.012 13.008-12.077 13.008-21.048s-4.984-17.036-13.008-21.048l-75.53-37.765c-3.705-1.853-8.209-.351-10.062 3.354s-.351 8.21 3.354 10.062l75.53 37.765c2.953 1.477 4.716 4.33 4.716 7.631s-1.763 6.155-4.716 7.631l-124.473 62.237c-2.704 1.352-5.73 1.216-8.302-.374s-4.046-4.235-4.046-7.258V177.731c0-3.023 1.475-5.669 4.046-7.258z" fill="#000000" data-original="#000000" class=""></path></g></svg>